<svg width="48" height="40" viewBox="0 0 48 40" fill="none" xmlns="http://www.w3.org/2000/svg">
<path d="M47.06 21.06L29.06 39.06C28.7757 39.325 28.3996 39.4692 28.011 39.4623C27.6224 39.4555 27.2516 39.2981 26.9768 39.0232C26.7019 38.7484 26.5445 38.3776 26.5377 37.989C26.5308 37.6004 26.675 37.2243 26.94 36.94L42.3775 21.5H2C1.60218 21.5 1.22064 21.342 0.93934 21.0607C0.658035 20.7794 0.5 20.3978 0.5 20C0.5 19.6022 0.658035 19.2206 0.93934 18.9393C1.22064 18.658 1.60218 18.5 2 18.5H42.3775L26.94 3.06C26.675 2.77565 26.5308 2.39956 26.5377 2.01095C26.5445 1.62235 26.7019 1.25158 26.9768 0.976754C27.2516 0.701928 27.6224 0.544505 28.011 0.537648C28.3996 0.530792 28.7757 0.675038 29.06 0.939998L47.06 18.94C47.3409 19.2212 47.4987 19.6025 47.4987 20C47.4987 20.3975 47.3409 20.7787 47.06 21.06Z" fill="white"/>
</svg>
